<svg width="243" height="219" viewBox="0 0 243 219" fill="none" xmlns="http://www.w3.org/2000/svg">
<path d="M124.865 30.1744C124.865 24.3314 129.597 19.5947 135.434 19.5947H208.364C214.201 19.5947 218.933 24.3314 218.933 30.1744V103.174C218.933 109.017 214.201 113.754 208.364 113.754H135.434C129.597 113.754 124.865 109.017 124.865 103.174V30.1744Z" fill="#99DDB9"/>
<path d="M20.2272 30.681C20.2272 24.838 24.9593 20.1013 30.7967 20.1013H103.726C109.563 20.1013 114.295 24.838 114.295 30.681V103.681C114.295 109.524 109.563 114.261 103.726 114.261H30.7967C24.9593 114.261 20.2272 109.524 20.2272 103.681V30.681Z" fill="#FDEAC3"/>
<path d="M51.0443 100.614C54.5996 104.393 55.0326 111.186 54.8047 114.11H36.6863C35.6607 110.849 33.6096 103.988 33.6096 102.639C33.6096 100.952 31.5584 93.8663 29.1654 88.8052C26.7725 83.7442 30.5329 81.7198 29.1654 76.9961C27.798 72.2725 23.3539 70.9229 21.6446 65.187C19.9353 59.4511 22.6702 54.0527 24.3795 50.0038C26.0887 45.955 25.405 39.8817 26.0887 37.5199C26.7725 35.1581 30.191 34.1459 30.5329 40.894C30.8747 47.642 34.2933 48.3168 36.6863 54.0527C39.0793 59.7885 36.6863 65.5244 40.4467 70.9229C44.2071 76.3213 47.6257 83.4068 46.942 88.8052C46.2583 94.2037 46.6001 95.8907 51.0443 100.614Z" fill="#00AB4F"/>
<path d="M40.3418 114.11H31.3834C30.6092 112.534 29.0608 108.908 29.0608 107.016C29.0608 104.651 25.7429 100.935 24.0839 99.5833C22.425 98.2319 21.4296 95.5292 20.766 88.4346C23.4203 95.5292 31.3834 93.5022 31.3834 96.5427C31.3834 99.5833 33.0423 102.624 34.7013 103.637C36.0285 104.448 39.0146 110.957 40.3418 114.11Z" fill="#99DDB9"/>
<path d="M31.4881 108.138C31.7575 110.527 34.5192 113.115 35.8663 114.11H44.6227C45.2962 110.46 42.602 108.138 41.5916 106.147C40.5813 104.156 35.8663 104.156 34.8559 94.8653C33.8456 85.5746 26.4364 76.2838 23.0686 73.9611C19.7007 71.6385 20.3743 68.3203 19.7007 66.6613C19.0272 65.0022 14.649 65.0022 12.2915 61.3523C9.93401 57.7023 9.93401 62.6795 10.9444 65.0022C11.9547 67.3249 12.9651 68.6521 13.3018 71.9703C13.6386 75.2884 17.0065 73.9611 17.68 78.6065C18.3536 83.2519 22.7318 85.2428 24.0789 87.2336C25.426 89.2245 25.426 94.5335 28.4571 96.8562C31.4881 99.1789 31.1513 105.151 31.4881 108.138Z" fill="#33BC72"/>
<path opacity="0.2" fill-rule="evenodd" clip-rule="evenodd" d="M17.5774 69.5514C17.7441 69.4679 17.9469 69.5356 18.0302 69.7025L18.0304 69.7028C19.262 72.1685 21.0402 75.7283 25.3826 79.7405C27.6205 81.8083 29.9207 85.3135 31.7431 89.0466C33.5661 92.7811 34.9335 96.79 35.277 99.8841C35.6053 102.842 37.1712 105.826 38.8876 108.257C40.6024 110.685 42.4377 112.519 43.2527 113.171C43.3982 113.288 43.4218 113.5 43.3054 113.646C43.189 113.792 42.9766 113.815 42.831 113.699C41.9584 113 40.0811 111.117 38.3364 108.647C36.5933 106.179 34.9528 103.082 34.6061 99.9587C34.2745 96.9715 32.9418 93.0412 31.1366 89.3432C29.3307 85.6439 27.0745 82.2233 24.9247 80.237C20.4919 76.1412 18.6699 72.494 17.4265 70.0046C17.3431 69.8377 17.4107 69.6348 17.5774 69.5514Z" fill="black"/>
<path opacity="0.2" fill-rule="evenodd" clip-rule="evenodd" d="M31.0086 50.6176C31.1834 50.6824 31.2726 50.8767 31.2079 51.0517C27.8931 60.0105 31.8562 66.6395 34.554 71.0278C35.9098 73.2331 37.2775 75.6271 38.3024 79.047C39.3266 82.4643 40.0043 86.8902 40.0043 93.1645C40.0043 99.3522 41.534 103.487 43.3733 106.546C44.2952 108.08 45.2985 109.349 46.2387 110.479C46.4339 110.714 46.6273 110.943 46.817 111.169C47.5344 112.021 48.2002 112.812 48.7217 113.583C48.8261 113.738 48.7856 113.948 48.6312 114.053C48.4768 114.157 48.267 114.117 48.1625 113.962C47.6631 113.223 47.0279 112.468 46.3144 111.621C46.1216 111.391 45.923 111.156 45.7199 110.911C44.7722 109.772 43.7433 108.472 42.7949 106.895C40.8934 103.732 39.3292 99.4769 39.3292 93.1645C39.3292 86.9386 38.6568 82.5807 37.6559 79.2411C36.6558 75.9042 35.3233 73.5684 33.9791 71.3819C31.2768 66.9863 27.1395 60.1017 30.5749 50.817C30.6396 50.6421 30.8338 50.5528 31.0086 50.6176Z" fill="black"/>
<path d="M193.75 33.0907C190.195 29.3118 189.762 22.5188 189.99 19.5946L208.108 19.5946C209.134 22.8562 211.185 29.7167 211.185 31.0663C211.185 32.7533 213.236 39.8388 215.629 44.8998C218.022 49.9609 214.261 51.9853 215.629 56.709C216.996 61.4326 221.44 62.7822 223.15 68.5181C224.859 74.2539 222.124 79.6524 220.415 83.7012C218.706 87.7501 219.389 93.8233 218.706 96.1852C218.022 98.547 214.603 99.5592 214.261 92.8111C213.92 86.0631 210.501 85.3882 208.108 79.6524C205.715 73.9165 208.108 68.1807 204.348 62.7822C200.587 57.3838 197.169 50.2983 197.852 44.8998C198.536 39.5014 198.194 37.8144 193.75 33.0907Z" fill="#00AB4F"/>
<path d="M204.453 19.5946L213.411 19.5946C214.185 21.1712 215.734 24.7974 215.734 26.6893C215.734 29.0542 219.051 32.7704 220.71 34.1218C222.369 35.4731 223.365 38.1759 224.028 45.2705C221.374 38.1759 213.411 40.2029 213.411 37.1623C213.411 34.1218 211.752 31.0812 210.093 30.0677C208.766 29.2569 205.78 22.7478 204.453 19.5946Z" fill="#99DDB9"/>
<path d="M213.306 25.5673C213.037 23.1782 210.275 20.5901 208.928 19.5947L200.172 19.5947C199.498 23.2446 202.192 25.5673 203.203 27.5582C204.213 29.549 208.928 29.549 209.938 38.8398C210.949 48.1305 218.358 57.4213 221.726 59.7439C225.094 62.0666 224.42 65.3847 225.094 67.0438C225.767 68.7029 230.145 68.7029 232.503 72.3528C234.86 76.0027 234.86 71.0256 233.85 68.7029C232.84 66.3802 231.829 65.0529 231.492 61.7348C231.156 58.4167 227.788 59.7439 227.114 55.0986C226.441 50.4532 222.062 48.4623 220.715 46.4714C219.368 44.4806 219.368 39.1716 216.337 36.8489C213.306 34.5262 213.643 28.5536 213.306 25.5673Z" fill="#33BC72"/>
<path opacity="0.2" fill-rule="evenodd" clip-rule="evenodd" d="M227.217 64.1537C227.05 64.2372 226.847 64.1695 226.764 64.0026L226.764 64.0023C225.532 61.5366 223.754 57.9767 219.412 53.9646C217.174 51.8968 214.874 48.3916 213.051 44.6585C211.228 40.924 209.861 36.915 209.517 33.821C209.189 30.8635 207.623 27.8787 205.907 25.4483C204.192 23.0201 202.357 21.1865 201.542 20.5339C201.396 20.4173 201.372 20.2047 201.489 20.059C201.605 19.9134 201.818 19.8897 201.963 20.0063C202.836 20.705 204.713 22.5877 206.458 25.0582C208.201 27.5264 209.842 30.6228 210.188 33.7464C210.52 36.7335 211.853 40.6639 213.658 44.3618C215.464 48.0612 217.72 51.4818 219.87 53.4681C224.302 57.5639 226.124 61.2111 227.368 63.7005C227.451 63.8673 227.384 64.0703 227.217 64.1537Z" fill="black"/>
<path opacity="0.2" fill-rule="evenodd" clip-rule="evenodd" d="M213.786 83.0875C213.611 83.0227 213.522 82.8283 213.586 82.6534C216.901 73.6946 212.938 67.0656 210.24 62.6773C208.884 60.472 207.517 58.078 206.492 54.6581C205.468 51.2408 204.79 46.8149 204.79 40.5406C204.79 34.3529 203.26 30.2182 201.421 27.159C200.499 25.6255 199.496 24.3564 198.556 23.226C198.36 22.9913 198.167 22.7616 197.977 22.5362C197.26 21.6841 196.594 20.8932 196.073 20.1216C195.968 19.9671 196.009 19.7571 196.163 19.6525C196.317 19.548 196.527 19.5885 196.632 19.743C197.131 20.4821 197.766 21.2368 198.48 22.0845C198.673 22.3136 198.871 22.5495 199.074 22.7937C200.022 23.9332 201.051 25.2331 201.999 26.8106C203.901 29.9733 205.465 34.2282 205.465 40.5406C205.465 46.7665 206.137 51.1244 207.138 54.4639C208.138 57.8009 209.471 60.1366 210.815 62.3232C213.517 66.7188 217.655 73.6034 214.219 82.888C214.155 83.063 213.96 83.1523 213.786 83.0875Z" fill="black"/>
<path d="M20.2272 135.064C20.2272 129.221 24.9593 124.484 30.7967 124.484H103.726C109.563 124.484 114.295 129.221 114.295 135.064V208.064C114.295 213.907 109.563 218.644 103.726 218.644H30.7967C24.9593 218.644 20.2272 213.907 20.2272 208.064V135.064Z" fill="#B2D3E6"/>
<path d="M124.865 135.42C124.865 129.577 129.597 124.841 135.434 124.841H208.364C214.201 124.841 218.933 129.577 218.933 135.42V208.42C218.933 214.263 214.201 219 208.364 219H135.434C129.597 219 124.865 214.263 124.865 208.42V135.42Z" fill="#FABBC2"/>
<path d="M83.2046 205.504C79.6493 209.283 79.2163 216.076 79.4442 219H97.5626C98.5881 215.739 100.639 208.878 100.639 207.528C100.639 205.841 102.69 198.756 105.083 193.695C107.476 188.634 103.716 186.609 105.083 181.886C106.451 177.162 110.895 175.812 112.604 170.077C114.314 164.341 111.579 158.942 109.869 154.893C108.16 150.845 108.844 144.771 108.16 142.41C107.476 140.048 104.058 139.036 103.716 145.784C103.374 152.532 99.9556 153.206 97.5626 158.942C95.1696 164.678 97.5626 170.414 93.8021 175.812C90.0417 181.211 86.6231 188.296 87.3069 193.695C87.9906 199.093 87.6487 200.78 83.2046 205.504Z" fill="#00AB4F"/>
<path d="M93.9071 219H102.866C103.64 217.424 105.188 213.797 105.188 211.905C105.188 209.541 108.506 205.824 110.165 204.473C111.824 203.122 112.819 200.419 113.483 193.324C110.829 200.419 102.866 198.392 102.866 201.432C102.866 204.473 101.207 207.514 99.5476 208.527C98.2204 209.338 95.2343 215.847 93.9071 219Z" fill="#99DDB9"/>
<path d="M102.761 213.027C102.491 215.417 99.7297 218.005 98.3826 219H89.6262C88.9526 215.35 91.6469 213.027 92.6572 211.037C93.6676 209.046 98.3826 209.046 99.3929 199.755C100.403 190.464 107.812 181.173 111.18 178.851C114.548 176.528 113.875 173.21 114.548 171.551C115.222 169.892 119.6 169.892 121.957 166.242C124.315 162.592 124.315 167.569 123.304 169.892C122.294 172.215 121.284 173.542 120.947 176.86C120.61 180.178 117.242 178.851 116.569 183.496C115.895 188.142 111.517 190.132 110.17 192.123C108.823 194.114 108.823 199.423 105.792 201.746C102.761 204.069 103.098 210.041 102.761 213.027Z" fill="#33BC72"/>
<path opacity="0.2" fill-rule="evenodd" clip-rule="evenodd" d="M116.672 174.441C116.505 174.357 116.302 174.425 116.219 174.592L116.219 174.592C114.987 177.058 113.209 180.618 108.866 184.63C106.628 186.698 104.328 190.203 102.506 193.936C100.683 197.671 99.3154 201.679 98.9719 204.773C98.6436 207.731 97.0777 210.716 95.3613 213.146C93.6465 215.574 91.8112 217.408 90.9962 218.061C90.8507 218.177 90.8271 218.39 90.9435 218.535C91.06 218.681 91.2723 218.705 91.4179 218.588C92.2905 217.889 94.1678 216.007 95.9125 213.536C97.6556 211.068 99.2961 207.972 99.6428 204.848C99.9744 201.861 101.307 197.931 103.112 194.233C104.918 190.533 107.174 187.113 109.324 185.126C113.757 181.031 115.579 177.383 116.822 174.894C116.906 174.727 116.838 174.524 116.672 174.441Z" fill="black"/>
<path opacity="0.2" fill-rule="evenodd" clip-rule="evenodd" d="M103.24 155.507C103.065 155.572 102.976 155.766 103.041 155.941C106.356 164.9 102.393 171.529 99.6949 175.917C98.3391 178.123 96.9714 180.517 95.9464 183.937C94.9222 187.354 94.2446 191.78 94.2446 198.054C94.2446 204.242 92.7148 208.377 90.8756 211.436C89.9536 212.969 88.9504 214.238 88.0101 215.369C87.8149 215.603 87.6216 215.833 87.4318 216.059C86.7145 216.911 86.0486 217.702 85.5272 218.473C85.4227 218.628 85.4632 218.838 85.6176 218.942C85.772 219.047 85.9819 219.006 86.0863 218.852C86.5858 218.113 87.221 217.358 87.9344 216.51C88.1273 216.281 88.3258 216.045 88.5289 215.801C89.4767 214.662 90.5055 213.362 91.454 211.784C93.3555 208.621 94.9196 204.367 94.9196 198.054C94.9196 191.828 95.5921 187.47 96.593 184.131C97.5931 180.794 98.9255 178.458 100.27 176.272C102.972 171.876 107.109 164.991 103.674 155.707C103.609 155.532 103.415 155.442 103.24 155.507Z" fill="black"/>
<path d="M92.7937 144.469L98.6069 149.224L93.8507 155.036L87.509 147.111C87.1567 147.287 86.2407 147.428 85.3951 146.582C84.5496 145.737 82.2243 145.878 81.1673 146.054C79.5819 145.878 77.0452 145.314 79.5819 144.469C82.7527 143.412 80.6389 141.827 80.1104 141.298C79.5819 140.77 76.4111 139.185 76.4111 136.543C76.4111 133.901 88.0375 136.543 90.6798 138.128C92.7937 139.396 92.9699 142.884 92.7937 144.469Z" fill="#F4CBA5"/>
<path d="M122.388 181.984C123.234 200.584 89.6229 215.801 70.0692 206.29L64.2563 179.871C67.4271 179.871 95.9647 181.562 102.306 179.871C108.648 178.18 97.5501 160.849 91.2084 152.395L97.5501 146.054C105.477 150.281 121.542 163.385 122.388 181.984Z" fill="#F1495C"/>
<path fill-rule="evenodd" clip-rule="evenodd" d="M98.7008 208.012C92.4856 209.441 86.0446 209.663 80.2851 208.278C77.5345 203.022 75.0734 194.229 77.8072 191.495C82.2111 196.251 94.9297 204.811 110.573 201.006C107.053 203.548 102.81 206.017 98.7008 208.012Z" fill="#ED1B33"/>
<path d="M94.3343 219H44.1978C46.0979 196.568 51.5711 178.286 68.3332 178.286C81.7429 178.286 89.6453 196.568 94.3343 219Z" fill="#F1495C"/>
<path d="M49.4554 219H30.7967C24.9593 219 20.2272 214.263 20.2272 208.42V202.376C31.0408 191.749 49.7073 183.534 60.9355 179.871L49.4554 219Z" fill="#F1495C"/>
<path d="M73.3892 143.051C73.3892 143.051 86.9362 141.919 85.9423 154.046C85.847 160.866 90.1358 177.972 77.2559 179.077C64.3759 180.182 63.0144 166.05 63.0144 166.05C63.0144 166.05 60.3867 166.582 60.1689 164.481C59.9646 162.394 59.9919 157.838 62.497 158.452C63.1778 155.328 57.4186 143.202 73.3892 143.051Z" fill="#F4CBA5"/>
<path d="M63.9921 165.64L62.1541 183.21C62.1541 183.21 76.0415 192.158 75.9189 183.155C73.8494 175.762 74.2443 169.61 74.2443 169.61L63.9921 165.64Z" fill="#F4CBA5"/>
<path d="M68.7071 168.642C68.7071 168.642 60.3066 151.509 69.4287 150.35C78.5645 149.19 80.702 148.685 83.3434 150.732C85.9847 152.764 90.3007 150.922 87.9317 145.603C85.5626 140.283 76.386 131.689 62.6075 140.01C59.1221 141.006 56.5352 145.221 58.3732 147.362C57.7061 149.122 57.3385 158.084 60.293 160.607C62.2671 159.612 64.9902 159.503 63.016 166.05C62.6211 169.733 63.4653 174.739 65.3305 175.148C65.8071 176.131 70.3409 182.733 76.74 181C83.1391 179.282 90.0692 176.171 85.6716 171.315C84.7185 170.197 80.634 174.125 77.9654 173.771C75.2968 173.416 69.4968 173.048 68.7071 168.642Z" fill="#78573F"/>
<path d="M167.425 158.712C167.848 163.785 170.772 163.996 172.181 163.468C172.886 166.11 174.295 171.817 174.295 173.507C174.295 175.621 185.922 184.604 200.19 200.984C214.459 217.364 209.703 188.302 211.817 181.433C213.931 174.564 206.532 169.28 204.947 166.638C203.361 163.996 201.247 161.354 201.247 157.656C201.247 153.957 199.133 148.673 192.792 146.56C186.45 144.446 181.694 148.673 176.938 148.673C172.181 148.673 166.897 152.372 167.425 158.712Z" fill="#78573F"/>
<path d="M129.638 184.108L128.89 191.581L136.364 192.328L135.243 182.24C135.843 182.24 137.984 178.753 138.98 177.009C139.976 175.764 141.371 173.572 138.98 174.767C135.99 176.262 136.364 173.647 136.364 172.899C136.364 172.152 137.485 168.789 135.617 166.921C133.748 165.053 127.396 175.141 126.648 178.13C126.05 180.521 128.392 183.112 129.638 184.108Z" fill="#F4CBA5"/>
<path d="M126.543 214.143C128.424 217.065 131.703 219 135.434 219H185.627C187.251 216.725 188.549 214.298 189.428 211.756L177.466 192.001C175.224 194.243 153.628 212.579 147.948 215.866C142.268 219.154 137.859 199.053 136.364 188.592H127.395C125.763 193.955 124.334 204.004 126.543 214.143Z" fill="#FBC65F"/>
<path d="M157.458 219H183.057C183.324 218.257 183.575 217.533 183.808 216.835L174.357 194.788C173.759 195.308 173.095 195.881 172.378 196.496C167.135 201.782 160.586 210.154 157.458 219Z" fill="#FAB837"/>
<path d="M162.563 219H208.364C209.53 219 210.652 218.811 211.701 218.462C209.085 200.356 203.023 186.783 188.58 186.783C177.909 186.783 161.389 205.221 162.563 219Z" fill="#FBC65F"/>
<path d="M183.524 151.549C183.524 151.549 169.977 150.417 170.971 162.544C171.066 169.364 166.777 186.47 179.657 187.574C192.537 188.679 193.899 174.548 193.899 174.548C193.899 174.548 196.527 175.08 196.744 172.979C196.949 170.892 196.921 166.336 194.416 166.95C193.735 163.826 199.495 151.699 183.524 151.549Z" fill="#F4CBA5"/>
<path d="M192.921 174.138L194.759 191.707C194.759 191.707 180.872 200.656 180.994 191.653C183.064 184.26 182.669 178.108 182.669 178.108L192.921 174.138Z" fill="#F4CBA5"/>
<path d="M172.71 162.411C170.596 164.102 169.363 161.707 169.01 160.298C161.823 151.844 169.891 148.321 174.824 147.617C174.648 146.912 175.986 145.397 182.751 144.975C189.515 144.552 192.263 148.321 192.792 150.259L198.076 164.525C197.372 165.406 195.54 167.801 193.849 170.337C191.735 173.508 189.092 164.525 188.036 162.94C183.808 165.476 179.58 160.122 177.995 157.128C177.114 158.184 174.824 160.721 172.71 162.411Z" fill="#78573F"/>
<path d="M202.907 219H208.364C214.201 219 218.933 214.263 218.933 208.42V206.238C211.744 202.017 203.237 194.568 198.076 189.504L202.907 219Z" fill="#FBC65F"/>
<path d="M79.4208 69.2972C79.8436 76.0682 73.6076 77.4083 70.4368 77.232C68.1468 76.8793 62.6154 76.3855 58.8104 77.232C54.0542 78.29 54.0542 74.587 52.4687 70.8841C47.7125 72.4709 48.2409 65.5942 46.1271 60.8333C39.2569 61.8913 45.5986 49.7246 45.5986 46.0217C41.8993 43.9058 46.1271 36.5 49.2979 35.4421C47.184 29.0942 59.3389 31.7392 67.7945 35.4421C70.9653 30.6812 77.8354 34.9131 82.5917 41.7899C87.8764 40.732 86.291 49.1957 85.234 56.6015C89.4618 62.9494 84.1771 67.1812 79.4208 69.2972Z" fill="#78573F"/>
<path d="M87.359 88.866C92.8551 92.1829 92.4676 107.178 91.5868 114.261H36.0971C35.921 109.251 37.1541 97.1582 43.4958 88.866C60.9354 76.946 80.4889 84.7199 87.359 88.866Z" fill="#33BC72"/>
<path fill-rule="evenodd" clip-rule="evenodd" d="M91.5868 114.261C92.4676 107.178 92.8551 92.183 87.359 88.8662C86.7087 88.4737 85.9448 88.0488 85.0798 87.6111C87.5458 94.3729 89.7064 104.795 86.9105 114.261H91.5868Z" fill="#00AB4F"/>
<path d="M70.9653 86.7538V79.877H61.4528V86.7538C61.8051 87.9881 63.2496 90.4567 66.2091 90.4567C69.1685 90.4567 70.613 87.9881 70.9653 86.7538Z" fill="#F4CBA5"/>
<path d="M66.2091 41.261C72.9198 41.261 82.0708 49.9287 80.2406 55.0274C78.4104 60.126 77.8004 65.7345 77.8004 69.8135C77.8004 73.8924 72.9198 83.5798 66.2091 83.5798C59.4983 83.5798 54.6178 73.8924 54.6178 69.8135C54.6178 65.7345 54.0077 60.126 52.1775 55.0274C50.3473 49.9287 59.4983 41.261 66.2091 41.261Z" fill="#F4CBA5"/>
<path d="M77.3551 62.5079C76.3655 64.2971 76.5983 66.321 77.875 67.0286C79.1517 67.7361 80.9889 66.8593 81.9785 65.0701C82.9681 63.281 82.7353 61.257 81.4586 60.5495C80.1818 59.842 78.3446 60.7188 77.3551 62.5079Z" fill="#F4CBA5"/>
<path d="M55.5549 62.5079C56.5444 64.2971 56.3117 66.321 55.0349 67.0286C53.7582 67.7361 51.921 66.8593 50.9314 65.0701C49.9418 63.281 50.1746 61.257 51.4513 60.5495C52.7281 59.842 54.5653 60.7188 55.5549 62.5079Z" fill="#F4CBA5"/>
<path d="M76.2501 61.3624C77.5184 63.9016 79.2448 61.0098 79.9494 59.2465C83.6487 55.5436 82.0633 51.3117 77.307 44.4349C72.5508 37.5581 59.8674 38.6161 52.9973 45.4929C46.1271 52.3697 51.9403 60.3045 54.0542 60.8335C56.1681 61.3624 56.6966 59.7755 57.2251 57.6595C57.7535 58.1885 60.9244 57.6595 60.9244 55.0146C63.5667 57.6595 66.7376 54.4856 68.8515 52.3697C70.9654 57.4479 74.3124 56.9542 75.7216 56.0726C75.3693 56.7779 74.9818 58.8233 76.2501 61.3624Z" fill="#78573F"/>
<path d="M100.153 83.0015L97.7184 89.0542L104.151 92.6052L106.207 85.4354C107.235 81.8506 118.642 80.2318 119.525 77.6914C120.232 75.6591 114.45 77.1677 111.47 78.176C114.642 75.7747 120.612 70.6011 119.113 69.1163C117.614 67.6314 112.337 71.9071 109.885 74.2306C111.833 70.4176 115.338 62.525 113.781 61.4581C112.224 60.3913 108.193 68.4949 106.372 72.6802C106.781 69.7196 107.21 63.5318 105.654 62.4649C104.097 61.398 101.915 71.5319 101.019 76.7323C99.4937 74.9243 96.3565 71.9354 96.0099 74.4431C95.6633 76.9508 98.6272 81.1936 100.153 83.0015Z" fill="#F4CBA5"/>
<path d="M96.8605 87.2827L105.316 91.5146L101.617 114.261H86.8195L96.8605 87.2827Z" fill="#33BC72"/>
<path d="M215.6 26.2498L213.166 32.3025L219.599 35.8535L221.655 28.6837C222.683 25.0989 234.089 23.4801 234.973 20.9397C235.68 18.9074 229.898 20.4159 226.918 21.4243C230.09 19.023 236.06 13.8494 234.561 12.3646C233.062 10.8797 227.784 15.1554 225.333 17.4788C227.28 13.6659 230.785 5.77333 229.228 4.70644C227.672 3.63955 223.641 11.7432 221.82 15.9284C222.229 12.9679 222.658 6.78005 221.101 5.71316C219.544 4.64627 217.363 14.7802 216.467 19.9806C214.941 18.1726 211.804 15.1837 211.458 17.6914C211.111 20.1991 214.075 24.4419 215.6 26.2498Z" fill="#C7986D"/>
<path d="M151.696 30.4908L154.13 36.5435L147.697 40.0944L145.641 32.9247C144.613 29.3398 133.206 27.7211 132.323 25.1807C131.616 23.1484 137.398 24.6569 140.378 25.6652C137.206 23.264 131.236 18.0904 132.735 16.6055C134.234 15.1207 139.512 19.3964 141.963 21.7198C140.016 17.9069 136.511 10.0143 138.067 8.9474C139.624 7.88052 143.655 15.9842 145.476 20.1694C145.067 17.2089 144.638 11.021 146.195 9.95413C147.751 8.88724 149.933 19.0212 150.829 24.2215C152.355 22.4136 155.492 19.4247 155.838 21.9324C156.185 24.4401 153.221 28.6828 151.696 30.4908Z" fill="#C7986D"/>
<path d="M171.589 113.591H154.859C152.41 83.924 148.534 45.4952 145.012 36.6567C150.419 34.3918 154.699 33.1481 156.162 32.8093C160.508 50.9384 170.587 88.7631 176.145 95.0296C178.952 98.1953 176.171 105.629 171.589 113.591Z" fill="#3389BC"/>
<path fill-rule="evenodd" clip-rule="evenodd" d="M202.48 113.591H152.317C151.425 92.4222 159.283 75.8486 178.532 75.8486C202.64 75.8486 202.571 92.2187 202.481 113.486C202.48 113.521 202.48 113.556 202.48 113.591Z" fill="#3389BC"/>
<path d="M191.78 78.881C184.746 87.1436 165.72 101.876 164.876 92.5934C164.656 90.1771 164.718 88.0896 164.96 86.3048C169.105 79.4581 174.263 75.2551 180.687 75.2551C184.895 75.2551 188.391 76.4096 191.296 78.494L191.78 78.881Z" fill="#006CAB"/>
<path d="M159.582 42.6819C156.416 46.3737 156.944 57.4491 162.747 58.5039C161.692 62.3714 163.485 70.9502 179.1 74.3256C198.619 78.5448 188.596 44.2641 184.376 39.5175C176.99 29.4969 160.637 39.5175 159.582 42.6819Z" fill="#78573F"/>
<path d="M173.485 40.6803C173.485 40.6803 159.962 39.5503 160.954 51.6542C161.049 58.4618 156.768 75.5353 169.625 76.6381C182.482 77.741 183.841 63.6356 183.841 63.6356C183.841 63.6356 186.464 64.1666 186.682 62.0698C186.885 59.9867 186.858 55.4392 184.358 56.0519C183.678 52.934 189.427 40.8301 173.485 40.6803Z" fill="#C7986D"/>
<path d="M185.45 55.2141L182.285 61.0155L177.537 49.4127C176.482 49.5885 173.211 49.7292 168.569 48.8853C163.927 48.0415 162.063 43.2597 161.711 40.9743L165.931 37.2825L178.064 36.7551L186.505 45.7209L185.45 55.2141Z" fill="#78573F"/>
<path d="M182.866 63.2273L184.7 80.7637C184.7 80.7637 170.838 89.6952 170.96 80.7092C173.026 73.3298 172.632 67.1893 172.632 67.1893L182.866 63.2273Z" fill="#C7986D"/>
<path d="M223.382 31.4904C217.474 42.0384 208.177 85.9904 202.55 113.591C195.165 101.812 178.542 90.7701 184.872 85.2852C191.202 79.8002 205.944 44.9108 212.626 27.5066C214.033 28.034 218.318 28.537 223.382 31.4904Z" fill="#3389BC"/>
<path d="M6.37567 129.095C3.457 129.095 1.09094 131.463 1.09094 134.385V154.486C1.09094 157.408 3.457 159.776 6.37567 159.776H21.5066L35.4417 168.145L32.1902 159.776H44.4257C47.3444 159.776 49.7105 157.408 49.7105 154.486V134.385C49.7105 131.463 47.3444 129.095 44.4257 129.095H6.37567Z" fill="white" stroke="#E4E4E4"/>
<path d="M129.938 124.484C128.098 124.484 126.606 125.977 126.606 127.819V140.492C126.606 142.334 128.098 143.827 129.938 143.827H140.186L148.262 148.677L146.378 143.827H153.926C155.766 143.827 157.258 142.334 157.258 140.492V127.819C157.258 125.977 155.766 124.484 153.926 124.484H129.938Z" fill="white" stroke="#E4E4E4"/>
<path d="M220.537 94.0646L213.648 89.9275L215.256 94.0646H214.866C213.026 94.0646 211.535 95.5577 211.535 97.3995V110.072C211.535 111.914 213.026 113.407 214.866 113.407H238.854C240.694 113.407 242.186 111.914 242.186 110.072V97.3995C242.186 95.5577 240.694 94.0646 238.854 94.0646H220.537Z" fill="white" stroke="#E4E4E4"/>
<path d="M119.58 1.15259C122.499 1.15259 124.865 3.52094 124.865 6.44244V26.5439C124.865 29.4654 122.499 31.8337 119.58 31.8337H104.449L90.5141 40.2028L93.7656 31.8337H81.5301C78.6114 31.8337 76.2454 29.4654 76.2454 26.5439V6.44244C76.2454 3.52094 78.6114 1.15259 81.5301 1.15259H119.58Z" fill="white" stroke="#E4E4E4"/>
</svg>
