
<svg style="transform: scale(0.7)" xmlns="http://www.w3.org/2000/svg" width="512" height="512" viewBox="0 0 477.867 477.867" fill="#d1d1d1" xmlns:v="https://vecta.io/nano"><path d="M426.667 68.267H51.2C22.923 68.267 0 91.2 0 119.467V358.4c0 28.277 22.923 51.2 51.2 51.2h375.467c28.277 0 51.2-22.923 51.2-51.2V119.467c0-28.277-22.923-51.2-51.2-51.2zM443.733 266l-107.4-107.4a17.07 17.07 0 0 0-24.132 0L170.667 300.134l-56.2-56.2a17.07 17.07 0 0 0-24.132 0l-56.2 56.2V119.467A17.07 17.07 0 0 1 51.2 102.4h375.467a17.07 17.07 0 0 1 17.067 17.067V266z"/><circle cx="153.6" cy="187.733" r="51.2"/></svg>